G04 EAGLE Gerber RS-274X export*
G75*
%MOMM*%
%FSLAX34Y34*%
%LPD*%
%INTop Copper*%
%IPPOS*%
%AMOC8*
5,1,8,0,0,1.08239X$1,22.5*%
G01*
%ADD10P,2.336880X8X22.500000*%
%ADD11P,1.649562X8X202.500000*%
%ADD12P,1.649562X8X22.500000*%
%ADD13P,1.429621X8X22.500000*%
%ADD14P,1.732040X8X22.500000*%
%ADD15C,1.600200*%
%ADD16P,1.732040X8X202.500000*%
%ADD17P,1.429621X8X202.500000*%
%ADD18P,1.732040X8X292.500000*%
%ADD19P,1.732040X8X112.500000*%
%ADD20C,2.000000*%
%ADD21R,2.000000X2.000000*%
%ADD22C,1.778000*%
%ADD23R,1.778000X1.778000*%
%ADD24R,2.540000X2.540000*%
%ADD25C,2.540000*%
%ADD26C,1.320800*%
%ADD27R,1.981200X1.981200*%
%ADD28C,1.981200*%
%ADD29R,1.930400X1.930400*%
%ADD30C,1.930400*%
%ADD31R,3.416000X3.416000*%
%ADD32C,3.416000*%
%ADD33C,1.320800*%
%ADD34C,0.254000*%
%ADD35C,0.508000*%
%ADD36C,0.756400*%


D10*
X381000Y635000D03*
D11*
X88900Y203200D03*
X38100Y203200D03*
X406400Y25400D03*
X355600Y25400D03*
X292100Y469900D03*
X241300Y469900D03*
D12*
X241300Y520700D03*
X292100Y520700D03*
X241300Y495300D03*
X292100Y495300D03*
X241300Y419100D03*
X292100Y419100D03*
X241300Y393700D03*
X292100Y393700D03*
D13*
X241300Y558800D03*
X292100Y558800D03*
D12*
X241300Y444500D03*
X292100Y444500D03*
D14*
X546100Y38100D03*
D15*
X520700Y38100D03*
D16*
X457200Y38100D03*
D15*
X482600Y38100D03*
D11*
X88900Y228600D03*
X38100Y228600D03*
D12*
X241300Y596900D03*
X292100Y596900D03*
X330200Y546100D03*
X381000Y546100D03*
D13*
X330200Y584200D03*
X381000Y584200D03*
D12*
X241300Y170180D03*
X292100Y170180D03*
X38100Y419100D03*
X88900Y419100D03*
D11*
X88900Y444500D03*
X38100Y444500D03*
D14*
X482600Y355600D03*
D15*
X457200Y355600D03*
D17*
X292100Y212090D03*
X241300Y212090D03*
D11*
X292100Y143510D03*
X241300Y143510D03*
D13*
X241300Y101600D03*
X292100Y101600D03*
D18*
X482600Y546100D03*
D15*
X482600Y571500D03*
D16*
X520700Y355600D03*
D15*
X546100Y355600D03*
D12*
X38100Y520700D03*
X88900Y520700D03*
D16*
X50800Y571500D03*
D15*
X76200Y571500D03*
D19*
X419100Y571500D03*
D15*
X419100Y546100D03*
D12*
X38100Y495300D03*
X88900Y495300D03*
X38100Y469900D03*
X88900Y469900D03*
D20*
X406400Y596900D03*
D21*
X482600Y596900D03*
D22*
X279400Y12700D03*
D23*
X304800Y12700D03*
D20*
X25400Y177800D03*
D21*
X101600Y177800D03*
D20*
X101600Y152400D03*
D21*
X25400Y152400D03*
D20*
X533400Y431800D03*
D21*
X457200Y431800D03*
D20*
X457200Y406400D03*
D21*
X533400Y406400D03*
D24*
X546100Y635000D03*
D25*
X495300Y635000D03*
X444500Y635000D03*
D24*
X342900Y635000D03*
D25*
X292100Y635000D03*
X241300Y635000D03*
D10*
X177800Y635000D03*
X203200Y635000D03*
X406400Y635000D03*
D26*
X127000Y228600D03*
X127000Y203200D03*
X203200Y203200D03*
X203200Y228600D03*
X127000Y177800D03*
X127000Y152400D03*
X203200Y177800D03*
X203200Y152400D03*
D27*
X127000Y571500D03*
D28*
X127000Y546100D03*
X127000Y520700D03*
X127000Y495300D03*
X127000Y469900D03*
X127000Y444500D03*
X127000Y419100D03*
X127000Y393700D03*
X203200Y393700D03*
X203200Y419100D03*
X203200Y444500D03*
X203200Y469900D03*
X203200Y495300D03*
X203200Y520700D03*
X203200Y546100D03*
X203200Y571500D03*
D10*
X177800Y12700D03*
X203200Y12700D03*
D24*
X342900Y342900D03*
D25*
X292100Y342900D03*
X241300Y342900D03*
D10*
X254000Y12700D03*
D11*
X419100Y76200D03*
X342900Y76200D03*
X533400Y76200D03*
X457200Y76200D03*
X419100Y127000D03*
X342900Y127000D03*
D12*
X317500Y495300D03*
X393700Y495300D03*
X317500Y469900D03*
X393700Y469900D03*
X317500Y444500D03*
X393700Y444500D03*
X317500Y419100D03*
X393700Y419100D03*
X317500Y393700D03*
X393700Y393700D03*
X342900Y254000D03*
X419100Y254000D03*
X317500Y520700D03*
X393700Y520700D03*
X127000Y254000D03*
X203200Y254000D03*
D11*
X101600Y279400D03*
X25400Y279400D03*
D12*
X342900Y304800D03*
X419100Y304800D03*
X342900Y279400D03*
X419100Y279400D03*
D11*
X304800Y304800D03*
X228600Y304800D03*
D12*
X457200Y279400D03*
X533400Y279400D03*
X25400Y393700D03*
X101600Y393700D03*
D11*
X203200Y279400D03*
X127000Y279400D03*
D12*
X457200Y304800D03*
X533400Y304800D03*
X127000Y304800D03*
X203200Y304800D03*
X228600Y279400D03*
X304800Y279400D03*
D11*
X419100Y101600D03*
X342900Y101600D03*
X419100Y50800D03*
X342900Y50800D03*
D12*
X25400Y254000D03*
X101600Y254000D03*
X342900Y228600D03*
X419100Y228600D03*
D11*
X419100Y203200D03*
X342900Y203200D03*
D12*
X127000Y596900D03*
X203200Y596900D03*
X342900Y177800D03*
X419100Y177800D03*
D11*
X419100Y152400D03*
X342900Y152400D03*
D29*
X546100Y596900D03*
D30*
X546100Y571500D03*
X546100Y546100D03*
D31*
X448310Y488950D03*
D32*
X495300Y488950D03*
X542290Y488950D03*
D10*
X228600Y12700D03*
D24*
X139700Y635000D03*
D25*
X88900Y635000D03*
X38100Y635000D03*
D24*
X139700Y342900D03*
D25*
X88900Y342900D03*
X38100Y342900D03*
D33*
X450596Y254000D02*
X463804Y254000D01*
X463804Y228600D02*
X450596Y228600D01*
X450596Y101600D02*
X463804Y101600D01*
X526796Y101600D02*
X540004Y101600D01*
X463804Y203200D02*
X450596Y203200D01*
X450596Y177800D02*
X463804Y177800D01*
X463804Y127000D02*
X450596Y127000D01*
X450596Y152400D02*
X463804Y152400D01*
X526796Y127000D02*
X540004Y127000D01*
X540004Y152400D02*
X526796Y152400D01*
X526796Y177800D02*
X540004Y177800D01*
X540004Y203200D02*
X526796Y203200D01*
X526796Y228600D02*
X540004Y228600D01*
X540004Y254000D02*
X526796Y254000D01*
D11*
X101600Y304800D03*
X25400Y304800D03*
X292100Y254000D03*
X241300Y254000D03*
D24*
X139700Y63500D03*
D25*
X88900Y63500D03*
X38100Y63500D03*
D24*
X139700Y114300D03*
D25*
X88900Y114300D03*
X38100Y114300D03*
D12*
X50800Y0D03*
X127000Y0D03*
X228600Y50800D03*
X304800Y50800D03*
D11*
X127000Y25400D03*
X50800Y25400D03*
D34*
X127000Y0D02*
X139700Y-12700D01*
X203200Y-12700D01*
X228600Y12700D01*
X38100Y203200D02*
X12700Y228600D01*
X12700Y266700D01*
X25400Y279400D01*
X101600Y279400D02*
X101600Y254000D01*
X101600Y241300D01*
X88900Y228600D01*
X101600Y228600D01*
X127000Y203200D01*
X101600Y177800D02*
X101600Y152400D01*
X101600Y177800D02*
X127000Y203200D01*
X419100Y203200D02*
X457200Y203200D01*
X546100Y622311D02*
X546100Y635000D01*
X563688Y473737D02*
X533400Y443449D01*
X563688Y604723D02*
X546100Y622311D01*
X563688Y604723D02*
X563688Y473737D01*
X533400Y443449D02*
X533400Y431800D01*
X533400Y406400D01*
X533400Y368300D02*
X546100Y355600D01*
X533400Y368300D02*
X533400Y406400D01*
X419100Y228600D02*
X419100Y203200D01*
X393700Y177800D02*
X342900Y177800D01*
X393700Y177800D02*
X419100Y203200D01*
X323850Y190500D02*
X304800Y171450D01*
D35*
X482600Y571500D02*
X482600Y596900D01*
D34*
X304800Y171450D02*
X304800Y93083D01*
X304800Y33917D02*
X304800Y12700D01*
X304800Y33917D02*
X292862Y45855D01*
X292862Y81145D02*
X304800Y93083D01*
X292862Y81145D02*
X292862Y45855D01*
D36*
X472991Y390609D03*
D35*
X472632Y457200D02*
X472632Y536850D01*
X469011Y540471D01*
X469011Y557911D02*
X482600Y571500D01*
X469011Y557911D02*
X469011Y540471D01*
D34*
X342900Y228600D02*
X336550Y228600D01*
X323850Y215900D01*
X323850Y190500D01*
D35*
X472991Y390609D02*
X482600Y400218D01*
X482600Y447232D02*
X472632Y457200D01*
X482600Y447232D02*
X482600Y400218D01*
D34*
X25400Y177800D02*
X25400Y152400D01*
X43045Y191262D02*
X50038Y198255D01*
X50038Y208145D01*
X43045Y191262D02*
X38862Y191262D01*
X38100Y220083D02*
X38100Y228600D01*
X38862Y191262D02*
X25400Y177800D01*
X50038Y208145D02*
X38100Y220083D01*
X60706Y91694D02*
X88900Y63500D01*
X25400Y151067D02*
X25400Y152400D01*
X60706Y115761D02*
X60706Y91694D01*
X60706Y115761D02*
X25400Y151067D01*
X88900Y63500D02*
X127000Y25400D01*
X148082Y46482D01*
X224282Y46482D01*
X228600Y50800D01*
X107188Y451612D02*
X88900Y469900D01*
X107188Y413512D02*
X127000Y393700D01*
X107188Y413512D02*
X107188Y451612D01*
X317500Y655858D02*
X320012Y658370D01*
D36*
X317500Y655858D03*
D34*
X508000Y330200D02*
X533400Y304800D01*
X508000Y458689D02*
X519238Y469927D01*
X519238Y586369D02*
X447237Y658370D01*
X320012Y658370D01*
X508000Y458689D02*
X508000Y330200D01*
X519238Y469927D02*
X519238Y586369D01*
X101600Y546100D02*
X76200Y571500D01*
X101600Y546100D02*
X127000Y546100D01*
X108193Y635000D02*
X88900Y635000D01*
X141224Y601969D02*
X141224Y449834D01*
X135890Y444500D01*
X127000Y444500D01*
X141224Y601969D02*
X108193Y635000D01*
X292100Y558800D02*
X317500Y533400D01*
X317500Y520700D01*
X292100Y520700D02*
X279400Y533400D01*
X241300Y533400D01*
X203200Y571500D01*
X292100Y520700D02*
X317500Y495300D01*
X241300Y520700D02*
X228600Y520700D01*
X203200Y546100D01*
X304800Y482600D02*
X317500Y469900D01*
X304800Y499483D02*
X296283Y508000D01*
X304800Y499483D02*
X304800Y482600D01*
X296283Y508000D02*
X279400Y508000D01*
X266700Y520700D01*
X241300Y520700D01*
X393700Y495300D02*
X393700Y469900D01*
X393700Y495300D02*
X393700Y520700D01*
X393700Y469900D02*
X381000Y457200D01*
X381000Y381000D01*
X381000Y342900D02*
X419100Y304800D01*
X381000Y342900D02*
X381000Y381000D01*
X292100Y495300D02*
X279400Y495300D01*
X266700Y508000D01*
X222250Y508000D02*
X209550Y520700D01*
X203200Y520700D01*
X222250Y508000D02*
X266700Y508000D01*
X279400Y461907D02*
X284615Y456692D01*
X279400Y461907D02*
X279400Y495300D01*
X317500Y448683D02*
X317500Y444500D01*
X317500Y448683D02*
X309491Y456692D01*
X284615Y456692D01*
X317500Y444500D02*
X330200Y431800D01*
X330200Y381000D01*
X317500Y304800D02*
X342900Y279400D01*
X317500Y368300D02*
X330200Y381000D01*
X317500Y368300D02*
X317500Y304800D01*
X241300Y495300D02*
X203200Y495300D01*
X288425Y431292D02*
X305308Y431292D01*
X288425Y431292D02*
X264922Y454795D01*
X305308Y431292D02*
X317500Y419100D01*
X264922Y471678D02*
X241300Y495300D01*
X264922Y471678D02*
X264922Y454795D01*
X393700Y444500D02*
X393700Y419100D01*
X393700Y393700D01*
X292100Y419100D02*
X254000Y457200D01*
X222250Y457200D02*
X209550Y469900D01*
X203200Y469900D01*
X222250Y457200D02*
X254000Y457200D01*
X292100Y419100D02*
X317500Y393700D01*
X241300Y419100D02*
X238760Y419100D01*
X213360Y444500D01*
X203200Y444500D01*
X203200Y393700D02*
X241300Y393700D01*
X279400Y393700D02*
X292100Y393700D01*
X279400Y393700D02*
X266700Y406400D01*
X224790Y406400D02*
X212090Y419100D01*
X203200Y419100D01*
X224790Y406400D02*
X266700Y406400D01*
X381000Y546100D02*
X381000Y584200D01*
X381000Y546100D02*
X393700Y546100D01*
X406400Y533400D01*
X406400Y419100D01*
X431800Y292100D02*
X419100Y279400D01*
X431800Y393700D02*
X406400Y419100D01*
X431800Y393700D02*
X431800Y292100D01*
X25400Y393700D02*
X25400Y406400D01*
X38100Y419100D01*
X317500Y596900D02*
X330200Y584200D01*
X317500Y596900D02*
X317500Y635000D01*
X294130Y658370D01*
X76200Y658370D02*
X63500Y645670D01*
X63500Y444500D02*
X38100Y419100D01*
X76200Y658370D02*
X294130Y658370D01*
X63500Y645670D02*
X63500Y444500D01*
X25400Y393700D02*
X25400Y381000D01*
X38100Y368300D01*
X254000Y368300D02*
X266700Y355600D01*
X266700Y330200D01*
X241300Y304800D02*
X228600Y304800D01*
X254000Y368300D02*
X38100Y368300D01*
X241300Y304800D02*
X266700Y330200D01*
X304800Y304800D02*
X304800Y304186D01*
X318008Y290978D01*
X318008Y196088D02*
X292100Y170180D01*
X318008Y196088D02*
X318008Y290978D01*
X266700Y609600D02*
X292100Y635000D01*
X266700Y609600D02*
X266700Y546100D01*
D36*
X266700Y546100D03*
D34*
X292100Y596900D02*
X302054Y596900D01*
X325882Y368779D02*
X325882Y330200D01*
X325882Y368779D02*
X342138Y385035D01*
X342138Y556816D01*
X302054Y596900D01*
X325882Y321818D02*
X342900Y304800D01*
X325882Y321818D02*
X325882Y330200D01*
X241300Y596900D02*
X241300Y635000D01*
X257302Y228092D02*
X241300Y212090D01*
X233545Y291338D02*
X216662Y291338D01*
X233545Y291338D02*
X257302Y267581D01*
X216662Y291338D02*
X203200Y304800D01*
X257302Y267581D02*
X257302Y228092D01*
X280162Y249055D02*
X280162Y258945D01*
X292100Y237117D02*
X292100Y212090D01*
X292100Y270883D02*
X292100Y342900D01*
X280162Y249055D02*
X292100Y237117D01*
X280162Y258945D02*
X292100Y270883D01*
X203200Y177800D02*
X237490Y143510D01*
X241300Y143510D01*
X152400Y304800D02*
X127000Y304800D01*
X152400Y304800D02*
X203200Y254000D01*
X228600Y279400D01*
X292100Y143510D02*
X292100Y101600D01*
X292100Y143510D02*
X268605Y167005D01*
X232410Y203200D01*
X203200Y203200D01*
X304800Y203200D02*
X304800Y279400D01*
X304800Y203200D02*
X268605Y167005D01*
X241300Y101600D02*
X254000Y88900D01*
X254000Y12700D01*
D35*
X406400Y596900D02*
X381000Y622300D01*
X381000Y635000D01*
D34*
X355600Y38100D02*
X355600Y25400D01*
X355600Y38100D02*
X393700Y76200D01*
X393700Y127000D01*
X406400Y139700D01*
X444500Y139700D01*
X457200Y127000D01*
X457200Y101600D02*
X457200Y76200D01*
X419100Y25400D02*
X406400Y25400D01*
X419100Y25400D02*
X457200Y63500D01*
X457200Y76200D01*
X457200Y101600D02*
X431800Y127000D01*
X419100Y127000D01*
X495300Y114300D02*
X533400Y76200D01*
X495300Y114300D02*
X495300Y139700D01*
D36*
X495300Y139700D03*
D34*
X457200Y152400D02*
X419100Y152400D01*
X482600Y241300D02*
X469900Y254000D01*
X457200Y254000D01*
X482600Y63500D02*
X457200Y38100D01*
X482600Y165100D02*
X482600Y241300D01*
X482600Y165100D02*
X482600Y63500D01*
X457200Y254000D02*
X457200Y279400D01*
X402217Y152400D02*
X342900Y152400D01*
X402217Y152400D02*
X414155Y164338D01*
X481838Y164338D02*
X482600Y165100D01*
X481838Y164338D02*
X414155Y164338D01*
X457200Y228600D02*
X431800Y254000D01*
X419100Y254000D01*
X546100Y38100D02*
X508000Y0D01*
X356214Y0D02*
X330200Y26014D01*
X356214Y0D02*
X508000Y0D01*
X342900Y127000D02*
X330200Y139700D01*
X342900Y127000D02*
X330200Y114300D01*
X330200Y26014D01*
X337955Y189738D02*
X354838Y189738D01*
X337955Y189738D02*
X330200Y181983D01*
X330200Y139700D01*
X354838Y189738D02*
X419100Y254000D01*
X482600Y38100D02*
X520700Y38100D01*
X419100Y508000D02*
X444500Y533400D01*
X419100Y508000D02*
X419100Y457200D01*
X444500Y533400D02*
X444500Y635000D01*
X419100Y457200D02*
X444500Y431800D01*
X487703Y367919D02*
X494919Y360703D01*
X494919Y317881D02*
X533400Y279400D01*
X494919Y317881D02*
X494919Y360703D01*
X470281Y367919D02*
X457200Y381000D01*
X470281Y367919D02*
X487703Y367919D01*
X457200Y431800D02*
X444500Y431800D01*
X457200Y431800D02*
X457200Y406400D01*
X457200Y381000D01*
X101600Y431800D02*
X88900Y444500D01*
X101600Y431800D02*
X101600Y393700D01*
X63500Y342900D02*
X38100Y342900D01*
X114300Y292100D02*
X127000Y279400D01*
X114300Y308983D02*
X97401Y325882D01*
X80518Y325882D01*
X114300Y308983D02*
X114300Y292100D01*
X80518Y325882D02*
X63500Y342900D01*
X88900Y342900D02*
X107950Y323850D01*
X222250Y323850D01*
X241300Y342900D01*
X457200Y355600D02*
X457200Y304800D01*
X533400Y254000D02*
X533400Y228600D01*
X533400Y254000D02*
X482600Y304800D01*
X482600Y355600D01*
X571500Y641107D02*
X554237Y658370D01*
X518670Y658370D02*
X495300Y635000D01*
X518670Y658370D02*
X554237Y658370D01*
X546100Y203200D02*
X533400Y203200D01*
X546100Y203200D02*
X571500Y228600D01*
X571500Y641107D01*
X71882Y107251D02*
X81851Y97282D01*
X105918Y97282D02*
X139700Y63500D01*
X105918Y97282D02*
X81851Y97282D01*
X71882Y107251D02*
X71882Y118618D01*
X55626Y134874D01*
X55626Y240657D01*
X42283Y254000D01*
X25400Y254000D01*
X101600Y304800D02*
X108712Y297688D01*
X108712Y289785D01*
X115062Y283435D02*
X115062Y274455D01*
X115062Y283435D02*
X108712Y289785D01*
X127000Y262517D02*
X127000Y254000D01*
X127000Y262517D02*
X115062Y274455D01*
X127000Y254000D02*
X139700Y241300D01*
X228600Y241300D01*
X241300Y254000D01*
X88900Y136949D02*
X88900Y114300D01*
X73152Y257048D02*
X25400Y304800D01*
X73152Y152697D02*
X88900Y136949D01*
X73152Y152697D02*
X73152Y257048D01*
D36*
X203200Y88900D03*
D34*
X122203Y88900D01*
X108233Y102870D01*
X100330Y102870D02*
X88900Y114300D01*
X100330Y102870D02*
X108233Y102870D01*
X55118Y56451D02*
X50800Y52133D01*
X55118Y97282D02*
X38100Y114300D01*
X55118Y97282D02*
X55118Y56451D01*
X50800Y25400D02*
X50800Y0D01*
X50800Y25400D02*
X50800Y52133D01*
M02*
