G04 EAGLE Gerber RS-274X export*
G75*
%MOMM*%
%FSLAX34Y34*%
%LPD*%
%INSoldermask Top*%
%IPPOS*%
%AMOC8*
5,1,8,0,0,1.08239X$1,22.5*%
G01*
%ADD10P,2.556822X8X22.500000*%
%ADD11P,1.869504X8X202.500000*%
%ADD12P,1.869504X8X22.500000*%
%ADD13P,1.649562X8X22.500000*%
%ADD14P,1.951982X8X22.500000*%
%ADD15C,1.803400*%
%ADD16P,1.951982X8X202.500000*%
%ADD17P,1.649562X8X202.500000*%
%ADD18P,1.951982X8X292.500000*%
%ADD19P,1.951982X8X112.500000*%
%ADD20C,2.203200*%
%ADD21R,2.203200X2.203200*%
%ADD22C,1.981200*%
%ADD23R,1.981200X1.981200*%
%ADD24R,2.743200X2.743200*%
%ADD25C,2.743200*%
%ADD26C,1.524000*%
%ADD27R,2.184400X2.184400*%
%ADD28C,2.184400*%
%ADD29R,2.133600X2.133600*%
%ADD30C,2.133600*%
%ADD31R,3.619200X3.619200*%
%ADD32C,3.619200*%
%ADD33C,1.524000*%


D10*
X381000Y635000D03*
D11*
X88900Y203200D03*
X38100Y203200D03*
X406400Y25400D03*
X355600Y25400D03*
X292100Y469900D03*
X241300Y469900D03*
D12*
X241300Y520700D03*
X292100Y520700D03*
X241300Y495300D03*
X292100Y495300D03*
X241300Y419100D03*
X292100Y419100D03*
X241300Y393700D03*
X292100Y393700D03*
D13*
X241300Y558800D03*
X292100Y558800D03*
D12*
X241300Y444500D03*
X292100Y444500D03*
D14*
X546100Y38100D03*
D15*
X520700Y38100D03*
D16*
X457200Y38100D03*
D15*
X482600Y38100D03*
D11*
X88900Y228600D03*
X38100Y228600D03*
D12*
X241300Y596900D03*
X292100Y596900D03*
X330200Y546100D03*
X381000Y546100D03*
D13*
X330200Y584200D03*
X381000Y584200D03*
D12*
X241300Y170180D03*
X292100Y170180D03*
X38100Y419100D03*
X88900Y419100D03*
D11*
X88900Y444500D03*
X38100Y444500D03*
D14*
X482600Y355600D03*
D15*
X457200Y355600D03*
D17*
X292100Y212090D03*
X241300Y212090D03*
D11*
X292100Y143510D03*
X241300Y143510D03*
D13*
X241300Y101600D03*
X292100Y101600D03*
D18*
X482600Y546100D03*
D15*
X482600Y571500D03*
D16*
X520700Y355600D03*
D15*
X546100Y355600D03*
D12*
X38100Y520700D03*
X88900Y520700D03*
D16*
X50800Y571500D03*
D15*
X76200Y571500D03*
D19*
X419100Y571500D03*
D15*
X419100Y546100D03*
D12*
X38100Y495300D03*
X88900Y495300D03*
X38100Y469900D03*
X88900Y469900D03*
D20*
X406400Y596900D03*
D21*
X482600Y596900D03*
D22*
X279400Y12700D03*
D23*
X304800Y12700D03*
D20*
X25400Y177800D03*
D21*
X101600Y177800D03*
D20*
X101600Y152400D03*
D21*
X25400Y152400D03*
D20*
X533400Y431800D03*
D21*
X457200Y431800D03*
D20*
X457200Y406400D03*
D21*
X533400Y406400D03*
D24*
X546100Y635000D03*
D25*
X495300Y635000D03*
X444500Y635000D03*
D24*
X342900Y635000D03*
D25*
X292100Y635000D03*
X241300Y635000D03*
D10*
X177800Y635000D03*
X203200Y635000D03*
X406400Y635000D03*
D26*
X127000Y228600D03*
X127000Y203200D03*
X203200Y203200D03*
X203200Y228600D03*
X127000Y177800D03*
X127000Y152400D03*
X203200Y177800D03*
X203200Y152400D03*
D27*
X127000Y571500D03*
D28*
X127000Y546100D03*
X127000Y520700D03*
X127000Y495300D03*
X127000Y469900D03*
X127000Y444500D03*
X127000Y419100D03*
X127000Y393700D03*
X203200Y393700D03*
X203200Y419100D03*
X203200Y444500D03*
X203200Y469900D03*
X203200Y495300D03*
X203200Y520700D03*
X203200Y546100D03*
X203200Y571500D03*
D10*
X177800Y12700D03*
X203200Y12700D03*
D24*
X342900Y342900D03*
D25*
X292100Y342900D03*
X241300Y342900D03*
D10*
X254000Y12700D03*
D11*
X419100Y76200D03*
X342900Y76200D03*
X533400Y76200D03*
X457200Y76200D03*
X419100Y127000D03*
X342900Y127000D03*
D12*
X317500Y495300D03*
X393700Y495300D03*
X317500Y469900D03*
X393700Y469900D03*
X317500Y444500D03*
X393700Y444500D03*
X317500Y419100D03*
X393700Y419100D03*
X317500Y393700D03*
X393700Y393700D03*
X342900Y254000D03*
X419100Y254000D03*
X317500Y520700D03*
X393700Y520700D03*
X127000Y254000D03*
X203200Y254000D03*
D11*
X101600Y279400D03*
X25400Y279400D03*
D12*
X342900Y304800D03*
X419100Y304800D03*
X342900Y279400D03*
X419100Y279400D03*
D11*
X304800Y304800D03*
X228600Y304800D03*
D12*
X457200Y279400D03*
X533400Y279400D03*
X25400Y393700D03*
X101600Y393700D03*
D11*
X203200Y279400D03*
X127000Y279400D03*
D12*
X457200Y304800D03*
X533400Y304800D03*
X127000Y304800D03*
X203200Y304800D03*
X228600Y279400D03*
X304800Y279400D03*
D11*
X419100Y101600D03*
X342900Y101600D03*
X419100Y50800D03*
X342900Y50800D03*
D12*
X25400Y254000D03*
X101600Y254000D03*
X342900Y228600D03*
X419100Y228600D03*
D11*
X419100Y203200D03*
X342900Y203200D03*
D12*
X127000Y596900D03*
X203200Y596900D03*
X342900Y177800D03*
X419100Y177800D03*
D11*
X419100Y152400D03*
X342900Y152400D03*
D29*
X546100Y596900D03*
D30*
X546100Y571500D03*
X546100Y546100D03*
D31*
X448310Y488950D03*
D32*
X495300Y488950D03*
X542290Y488950D03*
D10*
X228600Y12700D03*
D24*
X139700Y635000D03*
D25*
X88900Y635000D03*
X38100Y635000D03*
D24*
X139700Y342900D03*
D25*
X88900Y342900D03*
X38100Y342900D03*
D33*
X450596Y254000D02*
X463804Y254000D01*
X463804Y228600D02*
X450596Y228600D01*
X450596Y101600D02*
X463804Y101600D01*
X526796Y101600D02*
X540004Y101600D01*
X463804Y203200D02*
X450596Y203200D01*
X450596Y177800D02*
X463804Y177800D01*
X463804Y127000D02*
X450596Y127000D01*
X450596Y152400D02*
X463804Y152400D01*
X526796Y127000D02*
X540004Y127000D01*
X540004Y152400D02*
X526796Y152400D01*
X526796Y177800D02*
X540004Y177800D01*
X540004Y203200D02*
X526796Y203200D01*
X526796Y228600D02*
X540004Y228600D01*
X540004Y254000D02*
X526796Y254000D01*
D11*
X101600Y304800D03*
X25400Y304800D03*
X292100Y254000D03*
X241300Y254000D03*
D24*
X139700Y63500D03*
D25*
X88900Y63500D03*
X38100Y63500D03*
D24*
X139700Y114300D03*
D25*
X88900Y114300D03*
X38100Y114300D03*
D12*
X50800Y0D03*
X127000Y0D03*
X228600Y50800D03*
X304800Y50800D03*
D11*
X127000Y25400D03*
X50800Y25400D03*
M02*
