M48
;GenerationSoftware,Autodesk,EAGLE,9.6.2*%
;CreationDate,2023-01-20T18:55:41Z*%
FMAT,2
ICI,OFF
METRIC,TZ,000.000
T8C0.350
T7C0.813
T6C0.900
T5C1.000
T4C1.016
T3C1.100
T2C1.400
T1C2.400
%
G90
M71
T1
X54229Y48895
X49530Y48895
X44831Y48895
T2
X29210Y63500
X24130Y34290
X29210Y34290
X34290Y34290
X34290Y63500
X24130Y63500
X8890Y34290
X44450Y63500
X49530Y63500
X8890Y11430
X13970Y11430
X3810Y6350
X8890Y6350
X13970Y6350
X3810Y34290
X54610Y63500
X13970Y34290
X3810Y63500
X8890Y63500
X13970Y63500
X3810Y11430
T3
X54610Y59690
X54610Y54610
X54610Y57150
T4
X38100Y63500
X20320Y63500
X40640Y63500
X17780Y1270
X17780Y63500
X25400Y1270
X22860Y1270
X20320Y1270
T5
X53340Y43180
X45720Y43180
X45720Y40640
X53340Y40640
X48260Y59690
X20320Y57150
X10160Y17780
X40640Y59690
X12700Y41910
X12700Y44450
X12700Y46990
X12700Y49530
X12700Y52070
X10160Y15240
X12700Y54610
X12700Y57150
X20320Y54610
X20320Y52070
X2540Y17780
X20320Y49530
X20320Y46990
X20320Y44450
X20320Y41910
X20320Y39370
X12700Y39370
X2540Y15240
T6
X30480Y1270
X27940Y1270
T7
X52070Y3810
X45720Y3810
X8890Y22860
X3810Y22860
X24130Y59690
X29210Y59690
X33020Y54610
X38100Y54610
X33020Y58420
X38100Y58420
X24130Y17018
X29210Y17018
X3810Y41910
X8890Y41910
X8890Y44450
X3810Y44450
X48260Y35560
X45720Y35560
X29210Y21209
X24130Y21209
X29210Y14351
X24130Y14351
X24130Y10160
X29210Y10160
X48260Y54610
X48260Y57150
X52070Y35560
X54610Y35560
X8890Y52070
X5080Y57150
X7620Y57150
X41910Y57150
X41910Y54610
X3810Y49530
X8890Y49530
X3810Y46990
X8890Y46990
X12700Y22860
X12700Y20320
X20320Y20320
X20320Y22860
X12700Y17780
X12700Y15240
X20320Y17780
X20320Y15240
X3810Y52070
X48260Y3810
X41910Y7620
X34290Y7620
X53340Y7620
X45720Y7620
X41910Y12700
X34290Y12700
X31750Y49530
X39370Y49530
X31750Y46990
X39370Y46990
X31750Y44450
X39370Y44450
X31750Y41910
X39370Y41910
X31750Y39370
X39370Y39370
X34290Y25400
X41910Y25400
X31750Y52070
X39370Y52070
X12700Y25400
X20320Y25400
X10160Y27940
X2540Y27940
X34290Y30480
X41910Y30480
X34290Y27940
X41910Y27940
X30480Y30480
X22860Y30480
X45720Y27940
X53340Y27940
X2540Y39370
X10160Y39370
X20320Y27940
X12700Y27940
X45720Y30480
X53340Y30480
X12700Y30480
X20320Y30480
X22860Y27940
X30480Y27940
X41910Y10160
X34290Y10160
X41910Y5080
X34290Y5080
X2540Y25400
X10160Y25400
X34290Y22860
X41910Y22860
X41910Y20320
X34290Y20320
X12700Y59690
X20320Y59690
X34290Y17780
X41910Y17780
X41910Y15240
X34290Y15240
X8890Y20320
X3810Y20320
X40640Y2540
X35560Y2540
X29210Y46990
X24130Y46990
X24130Y52070
X29210Y52070
X24130Y49530
X29210Y49530
X24130Y41910
X29210Y41910
X24130Y39370
X45720Y25400
X45720Y22860
X45720Y10160
X53340Y10160
X45720Y20320
X45720Y17780
X45720Y12700
X45720Y15240
X53340Y12700
X53340Y15240
X53340Y17780
X53340Y20320
X53340Y22860
X53340Y25400
X10160Y30480
X2540Y30480
X29210Y25400
X24130Y25400
X29210Y39370
X24130Y55880
X29210Y55880
X24130Y44450
X29210Y44450
X54610Y3810
X5080Y0
X12700Y0
X22860Y5080
X30480Y5080
X12700Y2540
X5080Y2540
T8
X49530Y13970
X26670Y54610
X31750Y65586
X47299Y39061
X20320Y8890
M30